<?xml version="1.0" standalone="no"?><!DOCTYPE svg PUBLIC "-//W3C//DTD SVG 1.1//EN" "http://www.w3.org/Graphics/SVG/1.1/DTD/svg11.dtd"><svg t="1690294262695" class="icon" viewBox="0 0 1024 1024" version="1.1" xmlns="http://www.w3.org/2000/svg" p-id="9650" xmlns:xlink="http://www.w3.org/1999/xlink" width="300" height="300"><path d="M512 64C262.4 64 64 262.4 64 512s198.4 448 448 448 448-198.4 448-448-198.4-448-448-448z m51.2 716.8c0 32-19.2 51.2-51.2 51.2s-51.2-19.2-51.2-51.2V486.4c0-32 19.2-51.2 51.2-51.2s51.2 19.2 51.2 51.2v294.4z m25.6-486.4c0 44.8-38.4 76.8-76.8 76.8s-76.8-32-76.8-76.8 32-83.2 76.8-83.2 76.8 38.4 76.8 83.2z" fill="#1677ff" p-id="9651"></path></svg>